<?xml version="1.0" standalone="no"?>
<!DOCTYPE svg PUBLIC "-//W3C//DTD SVG 20010904//EN"
 "http://www.w3.org/TR/2001/REC-SVG-20010904/DTD/svg10.dtd">
<svg version="1.0" xmlns="http://www.w3.org/2000/svg"
 width="1562.000000pt" height="1562.000000pt" viewBox="0 0 1562.000000 1562.000000"
 preserveAspectRatio="xMidYMid meet">
<metadata>
Created by potrace 1.16, written by Peter Selinger 2001-2019
</metadata>
<g transform="translate(0.000000,1562.000000) scale(0.100000,-0.100000)"
fill="#000000" stroke="none">
<path d="M7201 11334 c-104 -18 -294 -80 -392 -129 -283 -142 -574 -415 -796
-748 -86 -128 -205 -366 -257 -512 -46 -132 -87 -285 -79 -299 4 -6 -1 -5 -10
3 -14 11 -17 11 -17 0 0 -11 -2 -11 -10 1 -8 12 -10 12 -11 -5 0 -11 -3 -14
-6 -7 -2 6 -9 12 -14 12 -6 0 -7 -4 -4 -10 3 -5 1 -10 -5 -10 -7 0 -10 6 -7
14 3 8 1 17 -6 20 -7 3 -1 4 13 1 14 -3 -4 8 -39 25 -35 17 -70 29 -78 26 -8
-3 -12 -2 -9 3 3 5 -70 33 -162 64 -918 304 -1765 304 -2497 -2 -758 -317
-1293 -959 -1499 -1796 -66 -273 -94 -572 -76 -821 39 -539 228 -1072 528
-1489 436 -606 1131 -1011 1882 -1096 183 -21 591 2 680 38 8 3 23 7 32 8 10
1 21 5 25 10 5 4 1 6 -8 3 -8 -3 -25 0 -38 7 -20 10 -21 13 -7 18 14 6 14 10
2 39 -38 90 -47 116 -46 129 5 29 0 50 -10 44 -6 -3 -10 1 -10 10 0 8 -7 32
-16 53 -9 20 -16 50 -15 65 2 15 -7 44 -19 64 -12 20 -19 45 -17 55 3 11 -3
24 -14 31 -22 16 -15 27 18 27 13 0 22 4 19 9 -3 5 4 9 17 9 12 0 40 5 62 10
22 6 56 13 75 16 96 14 157 27 257 57 59 17 115 33 123 34 8 1 29 8 45 15 17
7 36 12 44 11 7 -1 10 2 6 9 -4 7 -1 10 6 9 8 -2 28 4 44 13 17 8 47 21 68 27
20 7 37 17 37 22 0 5 4 9 9 9 13 0 195 122 204 137 5 8 12 11 18 8 5 -4 9 -1
9 5 0 6 5 8 10 5 6 -4 9 -2 8 2 -2 5 19 29 47 53 27 23 74 68 104 99 31 31 59
55 63 54 4 -2 5 3 2 11 -3 7 3 19 12 27 15 12 17 12 9 0 -5 -10 -4 -12 3 -7 7
4 12 13 12 21 0 7 9 16 19 20 13 4 18 12 14 22 -5 12 -3 14 7 8 9 -6 12 -4 8
6 -6 16 16 41 28 31 4 -4 4 2 0 13 -4 11 -4 16 0 13 9 -10 37 20 29 32 -4 6 1
7 11 3 13 -5 15 -2 9 18 -5 18 -4 20 4 9 12 -18 17 -13 36 36 l15 39 -6 -35
c-3 -19 -10 -39 -15 -45 -12 -12 -12 -38 0 -30 5 3 12 1 16 -5 10 -17 28 -11
21 7 -4 10 -4 14 0 10 4 -4 13 1 20 11 7 9 16 13 21 9 4 -5 0 -13 -10 -18 -21
-12 -22 -35 -2 -55 8 -9 15 -26 15 -40 0 -25 -15 -33 -23 -11 -3 8 -7 8 -11
-4 -8 -18 20 -89 35 -89 16 0 39 -26 39 -44 0 -9 5 -16 10 -16 16 0 12 -22 -7
-35 -19 -14 -23 -77 -5 -83 7 -2 12 -23 12 -48 0 -63 29 -60 64 6 11 21 26 36
37 36 14 0 12 -5 -12 -26 -19 -15 -31 -36 -32 -52 -2 -21 -5 -24 -16 -15 -12
10 -13 8 -9 -10 4 -15 0 -23 -13 -26 -11 -3 -19 -13 -19 -22 0 -12 23 6 64 51
36 37 63 71 60 75 -3 5 7 16 20 25 20 13 24 20 16 34 -7 12 -6 21 4 29 9 8 13
7 13 -4 0 -8 -5 -11 -10 -8 -6 4 -7 1 -2 -6 5 -10 10 -10 19 -1 6 6 11 14 11
18 0 4 9 18 21 30 38 41 155 246 149 261 -3 9 -3 12 1 8 22 -22 140 327 193
572 76 349 105 667 122 1326 6 248 12 455 14 461 2 8 39 4 118 -12 766 -155
1355 -79 1821 236 89 59 238 198 229 213 -3 5 -2 7 4 4 5 -4 23 8 39 25 16 18
20 26 10 18 -18 -14 -19 -14 -8 7 9 16 9 22 -1 26 -6 2 -9 8 -5 12 4 4 15 2
23 -5 11 -9 19 -10 26 -3 8 8 7 13 -2 18 -8 5 -10 4 -5 -3 4 -7 2 -12 -4 -12
-7 0 -10 6 -7 13 2 6 11 11 20 11 9 -1 14 2 12 6 -7 11 -45 9 -45 -2 0 -5 -9
-3 -20 4 -14 9 -20 24 -20 50 0 27 -4 38 -15 38 -8 0 -15 5 -15 10 0 6 -4 10
-10 10 -5 0 -10 -10 -10 -21 0 -33 -24 -8 -40 42 -10 30 -18 39 -31 36 -11 -3
-16 0 -13 8 5 13 -50 75 -67 75 -5 0 -9 5 -9 11 0 6 -12 20 -26 31 -14 11 -23
26 -20 34 7 17 -22 46 -36 38 -8 -5 -9 5 -5 29 l6 37 -25 -28 -25 -27 5 30 c4
20 -6 7 -26 -35 -18 -36 -38 -71 -45 -78 -7 -7 -13 -18 -13 -23 0 -21 -167
-181 -228 -220 -126 -80 -279 -130 -455 -149 -239 -27 -568 42 -1097 230 -80
29 -155 54 -167 57 -13 3 -23 9 -23 14 0 5 -10 9 -22 9 -38 0 -68 12 -61 23 3
6 1 7 -5 3 -6 -4 -40 4 -74 18 -35 13 -83 31 -108 39 -153 53 -306 122 -302
137 1 6 -12 17 -28 24 -27 11 -29 14 -16 26 23 19 19 47 -9 66 -16 10 -26 29
-30 52 -3 21 -9 49 -14 64 -6 18 -5 28 3 31 6 2 8 7 5 11 -4 4 -13 0 -22 -8
-13 -14 -15 -13 -20 9 -2 14 0 25 4 25 16 0 24 2 39 10 19 10 114 -6 118 -20
2 -6 7 -8 12 -5 4 3 29 -5 55 -16 60 -27 100 -32 83 -12 -9 11 -9 13 1 11 8
-2 15 5 16 15 2 9 -2 17 -8 17 -9 0 -9 2 -1 8 11 7 30 78 25 95 -3 13 76 241
125 361 63 154 144 301 156 284 7 -10 8 -8 4 5 -7 22 13 52 34 52 8 0 21 -10
28 -22 7 -13 17 -23 22 -23 6 0 10 -9 10 -20 0 -11 5 -20 11 -20 17 0 74 -62
71 -78 -2 -8 1 -11 6 -8 6 3 13 0 15 -6 4 -10 8 -9 16 2 8 11 9 5 7 -25 -5
-53 -5 -52 -17 -35 -10 13 -10 13 -6 0 6 -21 -47 -133 -58 -123 -4 4 -5 3 -2
-3 4 -7 -10 -47 -32 -90 -52 -107 -103 -238 -141 -364 -18 -58 -37 -115 -43
-128 -6 -14 -7 -25 -1 -30 5 -4 63 -32 129 -62 66 -30 122 -57 125 -60 3 -3
12 -6 20 -8 8 -2 35 -12 60 -24 25 -11 57 -24 73 -29 24 -7 27 -5 27 17 0 47
52 270 90 386 79 241 176 405 327 556 55 54 91 97 87 104 -4 7 -3 8 5 4 6 -4
8 -13 5 -19 -5 -9 -4 -9 5 -1 10 9 10 18 -2 40 -8 16 -12 35 -10 42 3 6 1 12
-4 12 -8 0 -36 80 -38 110 -1 8 -8 31 -16 50 -40 91 -33 117 40 155 170 86
500 149 646 124 33 -6 78 -10 100 -11 23 0 30 -2 17 -5 -26 -5 -20 -23 9 -23
20 0 27 -26 8 -32 -17 -6 -2 -78 16 -78 7 0 16 -6 18 -12 4 -10 6 -10 6 0 1
18 21 5 21 -14 0 -8 -7 -14 -16 -14 -11 0 -14 -8 -12 -27 2 -20 8 -28 21 -27
9 1 17 -3 17 -8 0 -6 6 -8 14 -5 8 3 16 2 18 -3 2 -4 26 -11 53 -14 254 -31
424 -86 578 -190 170 -113 288 -259 363 -448 32 -79 63 -237 66 -326 l1 -67 7
85 c8 105 -4 299 -26 405 -132 652 -673 1186 -1312 1296 -136 23 -354 24 -481
3z m-2901 -2430 c272 -31 574 -97 1003 -220 128 -36 233 -67 235 -69 6 -6 -40
-520 -63 -700 -97 -751 -251 -1171 -557 -1517 -156 -176 -396 -332 -627 -408
-147 -48 -247 -63 -431 -63 -260 -1 -454 42 -685 152 -294 141 -523 368 -672
666 -262 521 -214 1126 122 1560 231 298 592 508 1005 585 135 25 151 26 360
28 106 1 228 -4 310 -14z m1252 -2396 c-16 -16 -15 -63 1 -80 8 -7 17 -25 20
-40 5 -19 12 -25 22 -22 10 4 15 0 15 -11 0 -10 -5 -13 -12 -9 -8 5 -9 0 -5
-15 4 -17 2 -21 -8 -17 -9 3 -12 0 -8 -10 7 -20 18 -18 36 9 9 12 16 17 16 11
1 -6 -6 -17 -14 -24 -18 -15 -21 -45 -3 -34 7 4 8 3 4 -5 -4 -6 -12 -9 -17 -6
-5 4 -13 -4 -18 -17 -6 -13 -10 -19 -10 -14 -1 12 -31 -14 -31 -26 0 -6 7 -5
15 2 26 22 16 4 -12 -21 -20 -18 -24 -19 -13 -4 14 18 13 19 -1 8 -9 -7 -18
-10 -22 -7 -3 3 -3 -3 -1 -13 4 -13 -6 -31 -28 -54 -18 -19 -28 -28 -23 -19 6
9 0 6 -12 -7 -12 -13 -27 -23 -32 -23 -6 0 -8 -6 -5 -14 3 -9 -3 -17 -16 -21
-12 -4 -19 -9 -16 -12 4 -5 -41 -45 -114 -101 -16 -13 -34 -21 -40 -17 -6 3
-7 0 -4 -9 4 -10 -1 -18 -12 -23 -11 -4 -24 -13 -30 -21 -6 -8 -16 -12 -23 -8
-6 4 -10 3 -9 -3 2 -6 -15 -21 -37 -34 -22 -12 -43 -26 -46 -31 -4 -5 -13 -5
-20 -1 -8 5 -11 5 -7 0 9 -9 -5 -20 -85 -64 -32 -18 -63 -29 -69 -25 -6 4 -8
3 -5 -3 3 -5 -10 -17 -29 -26 -41 -20 -68 -22 -58 -5 4 7 3 8 -5 4 -6 -4 -9
-11 -6 -16 7 -12 -16 -27 -54 -35 -19 -4 -41 -14 -49 -22 -19 -18 -29 -8 -12
12 7 8 22 15 34 15 17 0 18 2 6 10 -8 5 -10 10 -5 10 10 0 52 35 139 118 21
20 35 30 31 22 -4 -8 20 13 54 48 38 38 66 60 74 56 7 -4 9 -3 4 1 -10 11 63
86 76 78 6 -3 7 -2 4 4 -3 5 18 35 48 65 30 31 55 60 55 65 0 5 20 27 45 49
25 21 45 43 45 48 0 15 78 95 86 88 4 -4 4 -2 0 5 -4 7 10 33 30 60 39 52 52
66 39 44 -5 -9 -4 -12 3 -7 7 4 12 13 12 20 0 17 35 48 43 39 4 -3 7 5 7 18 0
28 27 72 40 64 4 -3 11 2 14 11 4 9 9 14 13 10 4 -3 1 -12 -5 -18z"/>
<path d="M3658 8699 c-509 -63 -913 -387 -1072 -860 -28 -85 -56 -241 -55
-309 l1 -45 13 61 c55 252 241 529 470 701 243 182 617 328 982 384 48 7 84
18 87 25 3 8 0 11 -10 7 -8 -3 -14 1 -14 10 0 8 -10 18 -22 21 -41 11 -301 15
-380 5z"/>
<path d="M5263 8518 c-32 -593 -113 -1126 -215 -1418 -69 -197 -186 -399 -309
-535 -86 -94 -27 -51 83 62 140 142 220 254 298 416 104 215 188 613 254 1203
5 41 2 56 -13 75 -25 33 -76 160 -80 202 -2 12 -18 8 -18 -5z"/>
<path d="M12657 11241 c9 -11 23 -17 32 -14 13 4 13 3 2 -5 -11 -8 -11 -18 4
-63 10 -30 25 -62 33 -72 9 -10 18 -30 19 -45 2 -15 14 -49 28 -77 13 -27 29
-70 36 -95 7 -25 16 -47 20 -50 4 -3 17 -37 29 -77 12 -40 30 -89 41 -110 22
-43 24 -59 7 -67 -7 -3 0 -2 17 1 28 6 29 5 13 -11 -13 -12 -22 -14 -35 -7
-118 67 -475 170 -718 207 -166 26 -553 26 -705 1 -150 -25 -149 -25 -111 -49
28 -18 36 -30 32 -51 -1 -4 15 -23 34 -43 19 -19 35 -39 35 -44 0 -6 6 -10 14
-10 8 0 17 -6 19 -12 4 -10 8 -9 16 2 8 12 14 11 35 -10 15 -13 26 -34 26 -46
0 -22 61 -94 79 -94 24 0 80 -35 85 -52 3 -12 9 -17 16 -13 17 11 59 -44 60
-78 0 -15 6 -30 14 -33 34 -13 -17 -52 -75 -58 -13 -2 -33 -8 -44 -14 -11 -6
-51 -23 -90 -37 -160 -60 -470 -198 -380 -170 79 25 318 77 414 91 138 19 368
14 501 -11 358 -68 665 -248 885 -520 177 -219 279 -444 336 -740 20 -104 18
-388 -4 -498 -93 -464 -368 -817 -815 -1045 -240 -123 -554 -201 -807 -202
-49 0 -107 -4 -127 -9 -22 -5 -38 -5 -38 0 0 5 -25 9 -55 9 -58 0 -79 -19 -22
-21 29 -1 30 -2 7 -8 l-24 -7 32 -23 c18 -12 32 -31 32 -42 0 -10 7 -19 15
-19 9 0 18 -6 21 -14 3 -8 19 -20 35 -26 16 -7 29 -18 29 -26 0 -7 14 -22 30
-34 17 -12 30 -30 30 -41 0 -10 5 -19 11 -19 22 0 69 -42 69 -61 0 -10 5 -19
11 -19 22 0 69 -42 69 -61 0 -10 5 -19 12 -19 9 0 9 -3 0 -12 -9 -9 -7 -17 11
-36 15 -17 18 -26 9 -29 -6 -3 -9 -9 -6 -15 4 -6 9 -5 15 3 5 9 15 4 35 -19
16 -18 34 -32 42 -32 9 0 11 -9 6 -34 -5 -30 -4 -34 13 -30 25 7 83 -23 61
-31 -8 -3 -19 -5 -24 -4 -5 1 -11 0 -14 -1 -3 -1 -41 -8 -85 -15 -73 -11 -76
-12 -31 -14 27 0 76 3 110 9 33 5 113 17 176 25 63 9 157 25 208 36 51 12 96
18 99 15 4 -3 -2 -6 -13 -6 -10 0 -26 -5 -34 -10 -17 -12 -6 -10 105 15 73 17
296 86 305 95 9 9 50 8 44 -1 -2 -4 4 -13 15 -19 12 -6 18 -16 15 -25 -4 -8 1
-17 10 -21 12 -5 8 -11 -20 -30 -19 -13 -41 -24 -48 -24 -27 0 -36 -24 -23
-62 12 -32 14 -35 25 -20 11 15 12 14 9 -10 -3 -20 0 -25 11 -21 8 3 18 0 24
-8 7 -10 8 -8 3 7 -5 18 0 22 32 27 36 6 58 -6 47 -25 -3 -4 -3 -12 1 -18 9
-14 55 10 56 29 0 10 2 11 6 4 5 -14 49 6 173 79 172 102 320 217 470 368 203
202 333 383 465 645 148 293 236 586 281 932 25 189 23 527 -4 703 -78 513
-291 1011 -599 1400 -102 130 -334 355 -467 455 -194 145 -427 276 -621 350
-38 14 -85 33 -103 41 -42 18 -45 18 -25 -5z"/>
<path d="M6168 10889 c-172 -145 -363 -359 -498 -559 -108 -161 -271 -463
-257 -476 11 -11 131 -34 137 -27 4 4 24 53 45 108 135 354 359 700 644 998
25 26 43 47 41 47 -3 -1 -53 -41 -112 -91z"/>
<path d="M9820 10425 c-7 -8 -9 -15 -4 -15 12 0 -18 -20 -30 -20 -6 0 -5 5 2
12 7 7 12 16 12 21 0 10 -54 -53 -56 -65 -1 -4 -3 -11 -4 -15 -1 -5 -2 -11 -1
-15 0 -4 -5 -5 -13 -2 -14 5 -86 -93 -86 -117 0 -7 -3 -9 -7 -5 -11 11 -63
-81 -57 -101 4 -14 4 -15 -4 -4 -7 9 -12 10 -16 2 -4 -6 -4 -11 1 -11 4 0 3
-4 -3 -8 -21 -13 -95 -162 -88 -174 4 -7 4 -10 -1 -6 -17 16 -87 -181 -129
-362 -105 -448 -123 -919 -71 -1835 9 -154 19 -283 23 -286 4 -4 18 -10 32
-14 19 -5 21 -4 10 4 -8 6 -10 11 -4 11 6 0 14 -3 18 -7 9 -9 29 -13 91 -18
28 -2 66 -7 85 -11 19 -4 39 -6 44 -5 4 1 13 -2 20 -7 6 -5 52 -9 103 -8 50 1
86 -2 80 -6 -7 -5 -3 -8 11 -8 13 0 20 -4 17 -10 -3 -5 -2 -10 3 -10 13 0 22
163 22 410 0 373 25 680 72 899 30 140 34 159 56 236 11 38 18 74 15 79 -4 5
-1 6 7 1 10 -6 12 -4 7 7 -3 9 -1 20 3 24 5 5 11 19 13 31 1 11 8 27 14 35 6
7 14 24 17 38 6 20 5 22 -4 10 -9 -13 -11 -12 -8 3 2 10 7 17 12 17 16 -3 26
24 21 55 -4 21 -3 25 3 11 8 -19 9 -19 16 -1 4 10 2 21 -4 25 -8 5 -6 9 4 13
9 4 16 14 16 22 0 10 5 13 13 9 10 -6 10 -4 0 7 -7 7 -12 24 -12 39 1 16 3 19
6 8 2 -10 8 -18 12 -18 4 0 7 8 7 18 0 9 3 31 7 47 l6 30 -14 -30 c-11 -24
-15 -27 -20 -13 -4 9 -2 25 3 35 13 23 27 120 17 111 -5 -4 -15 -2 -23 5 -12
9 -16 9 -19 0 -3 -7 -8 -13 -13 -13 -17 0 -19 33 -5 67 19 44 19 49 0 33 -8
-7 -15 -18 -15 -26 0 -7 -9 -15 -19 -19 -11 -3 -24 -19 -30 -36 -6 -17 -14
-28 -19 -25 -5 3 -7 -7 -5 -22 2 -20 1 -22 -5 -9 -6 15 -12 10 -31 -31 -14
-29 -20 -55 -16 -63 6 -9 3 -11 -8 -6 -18 7 -33 -25 -21 -45 4 -7 4 -10 -1 -6
-16 15 -82 -153 -121 -302 l-24 -95 6 90 c3 50 17 146 31 215 14 69 26 132 27
140 1 9 6 21 10 28 4 7 9 30 11 50 2 37 13 73 25 82 12 9 41 111 35 120 -4 6
-1 10 4 10 6 0 11 9 11 19 0 27 11 52 19 46 4 -2 8 1 9 8 8 96 8 127 1 115 -7
-11 -11 -10 -19 2 -5 8 -10 21 -10 28 0 6 -4 12 -10 12 -5 0 -10 20 -10 44 0
26 -6 48 -15 56 -17 14 -21 60 -5 60 6 0 10 9 10 20 0 11 -4 20 -10 20 -5 0
-10 -9 -10 -20 0 -11 -7 -20 -15 -20 -11 0 -15 11 -15 36 0 27 -7 41 -26 56
-20 16 -25 28 -22 54 1 20 -4 40 -15 52 -9 10 -17 26 -17 36 0 9 -6 16 -12 15
-33 -4 -40 1 -24 16 8 9 17 14 19 13 2 -2 11 3 20 10 13 11 17 10 26 -5 6 -10
11 -13 11 -6 0 6 -5 15 -10 18 -8 5 -9 29 -1 64 1 2 9 -5 19 -16 9 -10 14 -14
9 -7 -8 13 16 38 26 27 4 -3 8 -1 8 5 2 21 4 27 12 40 11 17 2 15 -13 -3z"/>
<path d="M7925 10340 c-3 -5 -2 -10 3 -10 20 0 161 -147 200 -209 72 -110 85
-158 86 -301 1 -116 -1 -131 -29 -202 -16 -43 -35 -78 -42 -78 -6 0 -13 -6
-16 -12 -2 -7 -3 -4 -1 7 2 11 -2 35 -8 53 -9 25 -17 32 -31 28 -11 -2 -21 2
-24 11 -5 12 -7 12 -15 1 -6 -8 -7 -1 -3 21 5 25 4 32 -5 26 -9 -6 -11 3 -8
34 2 22 0 41 -4 41 -5 0 -8 -17 -8 -37 0 -49 -21 -127 -49 -182 -12 -23 -18
-40 -12 -37 7 4 8 1 5 -8 -3 -9 -9 -14 -13 -13 -4 1 -32 -25 -63 -58 -96 -103
-252 -183 -462 -236 -120 -31 -122 -31 -326 -26 -113 3 -216 8 -230 12 l-25 6
25 -11 c14 -6 95 -18 180 -26 396 -36 665 -2 904 117 151 75 254 198 314 374
23 69 26 95 26 190 -1 89 -6 121 -24 170 -52 136 -140 250 -251 326 -59 40
-83 47 -94 29z"/>
<path d="M11064 9846 c-67 -29 -148 -68 -180 -86 -53 -30 -172 -107 -184 -120
-3 -3 -41 -37 -84 -75 -43 -39 -111 -108 -150 -155 -38 -47 -73 -87 -76 -90
-24 -20 -142 -218 -195 -325 -228 -464 -310 -1076 -213 -1597 20 -107 23 -118
47 -127 27 -11 206 -51 227 -51 8 0 13 103 17 383 11 716 69 1117 212 1470
143 353 382 634 680 799 80 44 30 31 -101 -26z"/>
<path d="M9049 9068 c-5 -18 -11 -46 -12 -60 -1 -9 -3 -15 -6 -12 -3 2 -22
-31 -44 -73 -116 -231 -336 -443 -607 -587 -229 -121 -550 -214 -884 -257
-118 -15 -108 -21 75 -45 377 -48 735 35 1012 234 97 69 237 214 300 309 80
121 175 343 164 385 -3 10 -1 16 4 12 5 -3 9 -1 9 5 0 5 3 17 7 27 4 11 3 15
-5 10 -8 -4 -10 3 -7 24 2 16 2 30 -1 30 -2 0 -4 -1 -5 -2z"/>
<path d="M13196 8553 c-3 -16 -8 -48 -12 -73 -17 -118 -101 -325 -177 -438
-20 -29 -31 -50 -26 -46 6 3 -12 -18 -40 -47 -42 -44 -48 -55 -38 -68 10 -12
9 -14 -8 -7 -14 5 -17 4 -9 -4 8 -8 19 -8 40 0 27 9 27 9 10 -5 -18 -13 -18
-16 -2 -40 9 -14 22 -25 29 -25 6 -1 1 -7 -13 -15 -18 -10 -20 -14 -8 -15 20
0 62 55 53 70 -4 6 -1 9 5 8 16 -4 93 139 131 242 42 114 66 237 75 375 6 109
2 149 -10 88z"/>
<path d="M7948 7635 c-5 -5 -50 -11 -98 -14 -22 -1 -23 -3 -7 -12 30 -18 21
-46 -20 -60 -21 -6 -43 -18 -50 -25 -7 -7 -17 -14 -23 -16 -5 -1 -7 -13 -4
-25 7 -26 8 -26 151 21 114 36 267 76 368 96 99 19 106 24 40 31 -72 8 -350
11 -357 4z"/>
<path d="M8619 6576 c-3 -3 -53 -8 -111 -11 -102 -5 -134 -9 -268 -39 -124
-27 -286 -94 -372 -154 -53 -37 -126 -107 -154 -147 -34 -50 -82 -157 -99
-220 -19 -74 -19 -232 0 -304 18 -70 64 -163 76 -155 5 3 9 2 8 -3 -3 -18 2
-29 27 -58 14 -16 30 -29 36 -27 5 1 7 -2 4 -7 -12 -19 180 -161 217 -161 29
0 18 13 -50 65 -131 98 -226 235 -254 365 -12 56 -18 230 -8 250 3 8 15 42 25
75 20 68 86 175 136 221 18 17 63 53 100 81 37 28 64 54 61 57 -6 5 29 10 50
7 4 0 7 3 7 9 0 6 6 10 14 10 7 0 26 10 41 22 16 13 42 22 61 22 19 0 29 3 23
7 -7 4 -4 9 6 13 24 9 27 8 19 -6 -5 -8 -2 -9 10 -5 10 4 22 7 27 7 6 0 7 6 3
13 -5 7 0 6 11 -3 10 -8 16 -10 12 -4 -10 17 47 27 208 39 28 2 97 8 155 14
58 6 161 10 229 11 68 0 122 2 120 5 -7 7 -363 18 -370 11z"/>
<path d="M9289 6477 c-1 -1 -9 -63 -19 -137 l-16 -135 22 -45 c12 -25 26 -57
29 -72 4 -16 11 -28 15 -28 4 0 11 -16 15 -36 3 -20 15 -55 25 -78 10 -22 28
-66 40 -96 25 -65 39 -99 51 -122 5 -10 9 -29 9 -44 0 -14 7 -32 16 -41 14
-14 16 -14 30 3 27 35 82 160 118 269 37 113 96 353 96 392 0 18 -16 28 -105
62 -58 22 -149 55 -202 72 -54 17 -104 32 -110 34 -7 3 -14 3 -14 2z"/>
<path d="M9990 6234 c0 -21 -40 -204 -70 -320 -103 -398 -273 -746 -482 -984
-201 -228 -519 -421 -832 -504 -123 -33 -249 -50 -316 -42 -30 3 -66 7 -80 8
-25 2 -36 12 -233 206 -57 56 -107 102 -111 102 -3 0 -35 28 -69 63 -34 35
-70 66 -80 70 -10 4 -16 11 -12 16 3 5 -5 17 -17 25 -31 22 -23 20 79 -14 83
-27 240 -60 291 -60 15 0 21 4 16 11 -5 8 -2 9 11 2 12 -7 31 -7 57 0 32 8 37
12 24 19 -12 7 -14 13 -7 22 8 9 5 12 -11 12 -18 -1 -24 8 -35 54 -8 30 -19
58 -25 61 -6 4 -7 12 -4 18 4 6 3 11 -2 11 -6 0 -8 9 -5 20 3 11 4 21 2 21 -2
1 -78 5 -169 9 -104 5 -198 15 -255 27 -249 56 -459 186 -622 384 -31 38 -63
69 -71 69 -7 0 -10 5 -7 10 3 6 1 10 -4 10 -6 0 -11 10 -11 23 0 18 -2 19 -10
7 -7 -11 -10 -6 -11 20 l-1 35 -9 -30 c-22 -73 98 -372 224 -560 301 -448 827
-741 1317 -734 357 5 648 105 914 313 165 129 383 380 517 596 132 214 249
504 302 750 38 174 40 190 25 190 -7 0 -59 15 -115 33 -57 18 -103 32 -103 31z"/>
<path d="M10352 5996 c-5 -6 -8 -20 -8 -31 1 -11 -1 -22 -4 -25 -3 -3 -13 -29
-22 -59 -13 -40 -14 -59 -7 -74 11 -19 8 -52 -7 -91 -5 -13 -4 -17 3 -13 7 5
9 -1 5 -15 l-5 -22 -8 22 c-5 12 -10 22 -11 22 -2 0 -2 -30 -1 -67 1 -39 -1
-62 -6 -55 -6 10 -10 7 -13 -12 -3 -14 -1 -26 3 -26 5 0 9 -5 9 -11 0 -5 -4
-7 -10 -4 -16 10 -11 -1 7 -16 11 -10 14 -10 9 -1 -4 6 -3 12 2 12 17 0 120
214 191 398 24 59 27 56 -62 70 -40 6 -60 6 -65 -2z"/>
</g>
</svg>
